<svg width="68" height="207" viewBox="0 0 68 207" fill="none" xmlns="http://www.w3.org/2000/svg">
    <path d="M31 201.78V204.92H0.400025L0.400024 201.78H13.58V201.36C12.04 199.92 10.26 197.72 10.26 194.24C10.26 190.66 12.14 188.28 16.62 188.28H31L31 191.42H17.48C13.82 191.42 12.88 193.38 12.88 195.6C12.88 198.22 14.18 200.24 16.18 201.78H31Z" fill="black"/>
    <path d="M24.08 180.015H13.24L13.24 186.235L10.72 186.235V180.015H4.10002L4.10002 176.895H10.72L10.72 167.035H13.24V176.895H24.36C27.52 176.895 28.96 175.575 28.96 173.175C28.96 170.655 27.32 169.435 24.34 169.435H23.48V166.955H24.04C28.8 166.955 31.46 168.695 31.46 173.475C31.46 177.835 29.3 180.015 24.08 180.015Z" fill="black"/>
    <path d="M24.08 159.211H13.24L13.24 165.431L10.72 165.431V159.211H4.10002V156.091H10.72L10.72 146.231H13.24V156.091H24.36C27.52 156.091 28.96 154.771 28.96 152.371C28.96 149.851 27.32 148.631 24.34 148.631H23.48V146.151H24.04C28.8 146.151 31.46 147.891 31.46 152.671C31.46 157.031 29.3 159.211 24.08 159.211Z" fill="black"/>
    <path d="M24.08 138.406H13.24L13.24 144.626L10.72 144.626V138.406H4.10002V135.286H10.72V125.426H13.24V135.286H24.36C27.52 135.286 28.96 133.966 28.96 131.566C28.96 129.046 27.32 127.826 24.34 127.826H23.48V125.346H24.04C28.8 125.346 31.46 127.086 31.46 131.866C31.46 136.226 29.3 138.406 24.08 138.406Z" fill="black"/>
    <path d="M24.08 117.601H13.24L13.24 123.821H10.72V117.601H4.10002L4.10002 114.481H10.72V104.621H13.24V114.481L24.36 114.481C27.52 114.481 28.96 113.161 28.96 110.761C28.96 108.241 27.32 107.021 24.34 107.021H23.48V104.541H24.04C28.8 104.541 31.46 106.281 31.46 111.061C31.46 115.421 29.3 117.601 24.08 117.601Z" fill="black"/>
    <path d="M24.08 96.7965H13.24L13.24 103.017H10.72V96.7965H4.10002L4.10002 93.6766H10.72V83.8165H13.24V93.6766L24.36 93.6765C27.52 93.6765 28.96 92.3565 28.96 89.9565C28.96 87.4365 27.32 86.2165 24.34 86.2165H23.48V83.7365H24.04C28.8 83.7365 31.46 85.4765 31.46 90.2565C31.46 94.6165 29.3 96.7965 24.08 96.7965Z" fill="black"/>
    <path d="M20.84 61.9719C27.6 61.9719 31.48 65.1719 31.48 70.2119C31.48 73.2319 30.1 75.2719 28.24 76.7119V76.9519H38.86V80.0919H10.72V77.4719L13.48 77.1919V76.7319C11.6 75.1519 10.24 73.0319 10.24 70.0519C10.24 64.9519 14.26 61.9719 20.84 61.9719ZM25.94 76.9519C28.06 75.1119 28.78 73.2919 28.78 71.2919C28.78 67.4719 26.14 65.2119 20.84 65.2119C15.68 65.2119 12.96 67.3319 12.96 71.2319C12.96 73.2119 13.7 75.0319 15.82 76.9519H25.94Z" fill="black"/>
    <path d="M31.6 50.9672C31.6 52.8672 30.34 54.3872 28.24 54.3872C26.12 54.3872 24.9 52.8672 24.9 50.9672C24.9 49.0472 26.12 47.5272 28.24 47.5272C30.34 47.5272 31.6 49.0472 31.6 50.9672ZM12.64 54.3872C10.5 54.3872 9.28002 52.8672 9.28002 50.9672C9.28002 49.0472 10.5 47.5272 12.64 47.5272C14.72 47.5272 15.98 49.0472 15.98 50.9672C15.98 52.8672 14.72 54.3872 12.64 54.3872Z" fill="black"/>
    <path d="M35 36.0425V39.4425L1.80002 25.0825L1.80002 21.7025L35 36.0425Z" fill="black"/>
    <path d="M35 15.2378V18.6378L1.80002 4.2778L1.80002 0.897797L35 15.2378Z" fill="black"/>
    <path d="M59.8 191.78C64.96 191.78 67.34 194.48 67.34 199.14C67.34 203.8 64.96 206.36 59.8 206.36H59.3V203.52H60.1C63.34 203.52 64.78 201.94 64.78 199.16C64.78 196.38 63.34 194.92 60.1 194.92H41.18V204.84H38.72L38.3 192.22L38.72 191.78H59.8ZM30.74 196.5C29.32 196.5 28.48 195.5 28.48 194.06C28.48 192.62 29.32 191.6 30.74 191.6C32.16 191.6 33.02 192.62 33.02 194.06C33.02 195.5 32.16 196.5 30.74 196.5Z" fill="black"/>
    <path d="M48.84 165.995C55.6 165.995 59.48 169.195 59.48 174.235C59.48 177.255 58.1 179.295 56.24 180.735V180.975H66.86V184.115H38.72V181.495L41.48 181.215V180.755C39.6 179.175 38.24 177.055 38.24 174.075C38.24 168.975 42.26 165.995 48.84 165.995ZM53.94 180.975C56.06 179.135 56.78 177.315 56.78 175.315C56.78 171.495 54.14 169.235 48.84 169.235C43.68 169.235 40.96 171.355 40.96 175.255C40.96 177.235 41.7 179.055 43.82 180.975H53.94Z" fill="black"/>
    <path d="M48 164.791C41.98 164.791 38.26 161.511 38.26 156.551C38.26 153.551 39.62 151.491 41.48 150.051V149.571L38.72 149.291V146.671H57.86C64.72 146.671 67.34 149.931 67.34 155.731C67.34 161.131 65.08 163.611 62 164.331L61.3 161.511C63.84 160.751 64.94 158.651 64.94 155.731C64.94 152.331 63.48 149.811 58.18 149.811H54.44V150.031C56.32 151.611 57.68 153.751 57.68 156.711C57.68 161.731 53.8 164.791 48 164.791ZM48 161.531C52.28 161.531 54.98 159.411 54.98 155.531C54.98 153.531 54.24 151.711 52.1 149.811H43.8C41.68 151.651 40.94 153.471 40.94 155.471C40.94 159.251 43.54 161.531 48 161.531Z" fill="black"/>
    <path d="M37.22 144.606L33.96 143.546L37.08 135.406L28.4 135.886V132.466L37.08 132.966L33.96 124.826L37.22 123.766L39.38 132.226L46.2 126.706L48.22 129.446L40.82 134.186L48.22 138.946L46.2 141.686L39.38 136.166L37.22 144.606Z" fill="black"/>
    <path d="M47.36 122.481H44.62V104.281H47.36V122.481Z" fill="black"/>
    <path d="M37.22 102.997L33.96 101.937L37.08 93.7965L28.4 94.2766L28.4 90.8565L37.08 91.3565L33.96 83.2165L37.22 82.1565L39.38 90.6165L46.2 85.0965L48.22 87.8365L40.82 92.5765L48.22 97.3365L46.2 100.077L39.38 94.5565L37.22 102.997Z" fill="black"/>
</svg>
